HIERARCHY
ROOT hip
{
  OFFSET 0 0 0
  CHANNELS 6 Xposition Yposition Zposition Zrotation Yrotation Xrotation
  JOINT abdomen
  {
    OFFSET 0 20.6881 -0.73152
    CHANNELS 3 Zrotation Xrotation Yrotation
    JOINT chest
    {
      OFFSET 0 11.7043 -0.48768
      CHANNELS 3 Zrotation Xrotation Yrotation
      JOINT neck
      {
        OFFSET 0 22.1894 -2.19456
        CHANNELS 3 Zrotation Xrotation Yrotation
        JOINT head
        {
          OFFSET -0.24384 7.07133 1.2192
          CHANNELS 3 Zrotation Xrotation Yrotation
          JOINT leftEye
          {
            OFFSET 4.14528 8.04674 8.04672
            CHANNELS 3 Zrotation Xrotation Yrotation
            End Site
            {
              OFFSET 1 0 0
            }
          }
          JOINT rightEye
          {
            OFFSET -3.6576 8.04674 8.04672
            CHANNELS 3 Zrotation Xrotation Yrotation
            End Site
            {
              OFFSET 1 0 0
            }
          }
        }
      }
      JOINT rCollar
      {
        OFFSET -2.68224 19.2634 -4.8768
        CHANNELS 3 Zrotation Xrotation Yrotation
        JOINT rShldr
        {
          OFFSET -8.77824 -1.95073 1.46304
          CHANNELS 3 Zrotation Xrotation Yrotation
          JOINT rForeArm
          {
            OFFSET -28.1742 -1.7115 0.48768
            CHANNELS 3 Zrotation Xrotation Yrotation
            JOINT rHand
            {
              OFFSET -22.5879 0.773209 7.07136
              CHANNELS 3 Zrotation Xrotation Yrotation
              JOINT rThumb1
              {
                OFFSET -1.2192 -0.487915 3.41376
                CHANNELS 3 Zrotation Xrotation Yrotation
                JOINT rThumb2
                {
                  OFFSET -3.37035 -0.52449 3.41376
                  CHANNELS 3 Zrotation Xrotation Yrotation
                  End Site
                  {
                    OFFSET -1.78271 -1.18214 1.43049
                  }
                }
              }
              JOINT rIndex1
              {
                OFFSET -7.75947 0.938293 5.60832
                CHANNELS 3 Zrotation Xrotation Yrotation
                JOINT rIndex2
                {
                  OFFSET -2.54057 -0.884171 1.56538
                  CHANNELS 3 Zrotation Xrotation Yrotation
                  End Site
                  {
                    OFFSET -1.62519 -0.234802 1.16502
                  }
                }
              }
              JOINT rMid1
              {
                OFFSET -8.24714 1.18213 3.41376
                CHANNELS 3 Zrotation Xrotation Yrotation
                JOINT rMid2
                {
                  OFFSET -3.10165 -0.590103 1.0647
                  CHANNELS 3 Zrotation Xrotation Yrotation
                  End Site
                  {
                    OFFSET -2.48547 -0.328903 0.83742
                  }
                }
              }
              JOINT rRing1
              {
                OFFSET -8.82822 0.546677 1.51678
                CHANNELS 3 Zrotation Xrotation Yrotation
                JOINT rRing2
                {
                  OFFSET -2.60934 -0.819778 -0.0198488
                  CHANNELS 3 Zrotation Xrotation Yrotation
                  End Site
                  {
                    OFFSET -2.33842 -0.294052 0.168128
                  }
                }
              }
              JOINT rPinky1
              {
                OFFSET -8.27202 -0.0477905 -0.4584
                CHANNELS 3 Zrotation Xrotation Yrotation
                JOINT rPinky2
                {
                  OFFSET -1.82734 -0.647385 -0.700984
                  CHANNELS 3 Zrotation Xrotation Yrotation
                  End Site
                  {
                    OFFSET -1.69225 -0.51767 -0.607171
                  }
                }
              }
            }
          }
        }
      }
      JOINT lCollar
      {
        OFFSET 2.68224 19.2634 -4.8768
        CHANNELS 3 Zrotation Xrotation Yrotation
        JOINT lShldr
        {
          OFFSET 8.77824 -1.95073 1.46304
          CHANNELS 3 Zrotation Xrotation Yrotation
          JOINT lForeArm
          {
            OFFSET 28.1742 -1.7115 0.48768
            CHANNELS 3 Zrotation Xrotation Yrotation
            JOINT lHand
            {
              OFFSET 22.5879 0.773209 7.07136
              CHANNELS 3 Zrotation Xrotation Yrotation
              JOINT lThumb1
              {
                OFFSET 1.2192 -0.487915 3.41376
                CHANNELS 3 Zrotation Xrotation Yrotation
                JOINT lThumb2
                {
                  OFFSET 3.37035 -0.52449 3.41376
                  CHANNELS 3 Zrotation Xrotation Yrotation
                  End Site
                  {
                    OFFSET 1.78271 -1.18214 1.43049
                  }
                }
              }
              JOINT lIndex1
              {
                OFFSET 7.75947 0.938293 5.60832
                CHANNELS 3 Zrotation Xrotation Yrotation
                JOINT lIndex2
                {
                  OFFSET 2.54057 -0.884171 1.56538
                  CHANNELS 3 Zrotation Xrotation Yrotation
                  End Site
                  {
                    OFFSET 1.62519 -0.234802 1.16502
                  }
                }
              }
              JOINT lMid1
              {
                OFFSET 8.24714 1.18213 3.41376
                CHANNELS 3 Zrotation Xrotation Yrotation
                JOINT lMid2
                {
                  OFFSET 3.10165 -0.590103 1.0647
                  CHANNELS 3 Zrotation Xrotation Yrotation
                  End Site
                  {
                    OFFSET 2.48547 -0.328903 0.83742
                  }
                }
              }
              JOINT lRing1
              {
                OFFSET 8.82822 0.546677 1.51678
                CHANNELS 3 Zrotation Xrotation Yrotation
                JOINT lRing2
                {
                  OFFSET 2.60934 -0.819778 -0.0198488
                  CHANNELS 3 Zrotation Xrotation Yrotation
                  End Site
                  {
                    OFFSET 2.33842 -0.294052 0.168128
                  }
                }
              }
              JOINT lPinky1
              {
                OFFSET 8.27202 -0.0477905 -0.4584
                CHANNELS 3 Zrotation Xrotation Yrotation
                JOINT lPinky2
                {
                  OFFSET 1.82734 -0.647385 -0.700984
                  CHANNELS 3 Zrotation Xrotation Yrotation
                  End Site
                  {
                    OFFSET 1.69225 -0.51767 -0.607171
                  }
                }
              }
            }
          }
        }
      }
    }
  }
  JOINT rButtock
  {
    OFFSET -8.77824 4.35084 1.2192
    CHANNELS 3 Zrotation Xrotation Yrotation
    JOINT rThigh
    {
      OFFSET 0 -1.70687 -2.19456
      CHANNELS 3 Zrotation Xrotation Yrotation
      JOINT rShin
      {
        OFFSET 0 -36.8199 0.73152
        CHANNELS 3 Zrotation Xrotation Yrotation
        JOINT rFoot
        {
          OFFSET 0.73152 -45.1104 -5.12064
          CHANNELS 3 Zrotation Xrotation Yrotation
          End Site
          {
            OFFSET -1.1221 -3.69964 12.103
          }
        }
      }
    }
  }
  JOINT lButtock
  {
    OFFSET 8.77824 4.35084 1.2192
    CHANNELS 3 Zrotation Xrotation Yrotation
    JOINT lThigh
    {
      OFFSET 0 -1.70687 -2.19456
      CHANNELS 3 Zrotation Xrotation Yrotation
      JOINT lShin
      {
        OFFSET 0 -36.8199 0.73152
        CHANNELS 3 Zrotation Xrotation Yrotation
        JOINT lFoot
        {
          OFFSET -0.73152 -45.1104 -5.12064
          CHANNELS 3 Zrotation Xrotation Yrotation
          End Site
          {
            OFFSET 1.1221 -3.69964 12.103
          }
        }
      }
    }
  }
}
MOTION
Frames:	4
Frame Time:	0.03333
-0.5350279902827195 34.86024050480207 -0.17589804533171102 -159.0599822998047 -66.5248031616211 161.3199920654297 1.6532998085021973 11.70099925994873 13.711298942565918 -0.37849095463752747 -14.067001342773438 3.8055708408355713 -0.06096547096967697 13.113699913024902 9.832939147949219 5.144299030303955 -18.546998977661133 19.963499069213867 -0.0 0.0 -0.0 -0.0 0.0 -0.0 2.544443605465019e-13 -6.246609132731784e-12 -2.2263881547818914e-13 47.79319763183594 82.49689483642578 15.579298973083496 -26.52250099182129 -45.18349838256836 93.84169006347656 -42.33049774169922 -79.58330535888672 -49.861900329589844 -7.696432935411224e-10 8.796141592881668e-11 4.785907781190701e-10 -1.3546872512648633e-09 1.7035050453584333e-11 7.659347600608157e-10 -7.696432935411224e-10 8.796141592881668e-11 4.785843943366785e-10 7.7309088706970215 5.474880218505859 0.41731396317481995 -7.696432935411224e-10 8.796141592881668e-11 4.785971063903105e-10 2.9055399894714355 0.9651829600334167 0.10290198773145676 -7.696432935411224e-10 8.796141592881668e-11 4.785971063903105e-10 10.27859878540039 0.73180091381073 0.025912299752235413 -7.696432935411224e-10 8.796141592881668e-11 4.786098184439425e-10 2.2216696739196777 -0.7334870100021362 -0.2089199721813202 2.544443605465019e-13 -6.246609132731784e-12 -2.2263881547818914e-13 -67.38409423828125 5.7587504386901855 -36.349098205566406 28.420196533203125 -34.781105041503906 -74.97989654541016 0.44129613041877747 18.545700073242188 -2.702440023422241 -6.001324437399091e-10 1.1276847233787635e-09 1.6614580822249536e-09 -1.0173448750094849e-09 1.943853078500979e-09 2.878109306436727e-09 -6.001324437399091e-10 1.1276847233787635e-09 1.6614707387674343e-09 -7.7309088706970215 5.474880218505859 -0.41731396317481995 -6.001324437399091e-10 1.1276847233787635e-09 1.6614580822249536e-09 -2.9055399894714355 0.9651829600334167 -0.10290198773145676 -6.001452113046923e-10 1.1276847233787635e-09 1.6614707387674343e-09 -10.27859878540039 0.73180091381073 -0.025912299752235413 -6.001324437399091e-10 1.1276847233787635e-09 1.6614580822249536e-09 -2.2216696739196777 -0.7334870100021362 0.2089199721813202 -0.0 0.0 -0.0 -13.827299118041992 -38.80900192260742 -25.654598236083984 -39.1537971496582 88.63097381591797 40.858795166015625 -23.366296768188477 -24.92490005493164 -34.378299713134766 -0.0 0.0 -0.0 82.58159637451172 -42.797203063964844 75.88939666748047 4.310969829559326 77.83309173583984 -4.172579765319824 -0.20574699342250824 1.7683799266815186 -5.0191497802734375
-0.5335383000321681 34.86155873131188 -0.1770439608930244 -158.96099853515625 -66.47650146484375 161.20994567871094 1.7091598510742188 11.749100685119629 13.681899070739746 -0.3969047963619232 -14.098600387573242 3.7969095706939697 -0.07766551524400711 13.104598999023438 9.827519416809082 5.192320823669434 -18.55579948425293 19.96320152282715 -0.0 0.0 -0.0 -0.0 0.0 -0.0 1.5266661632790113e-13 -5.534164706361144e-12 -3.1805545068312735e-13 47.78429412841797 82.46830749511719 15.590600967407227 -26.521703720092773 -45.185997009277344 93.8450927734375 -42.29659652709961 -79.57809448242188 -49.82749938964844 -3.3722782899481274e-10 6.844044220244427e-10 6.795700113748637e-10 -6.25411500365658e-10 1.0892763357972512e-09 1.13145681712723e-09 -3.3722782899481274e-10 6.843917099708108e-10 6.795572993212318e-10 7.7309088706970215 5.474880218505859 0.41731396317481995 -3.3722782899481274e-10 6.844044220244427e-10 6.795700113748637e-10 2.9055399894714355 0.9651829600334167 0.10290198773145676 -3.3722782899481274e-10 6.844044220244427e-10 6.795700113748637e-10 10.27859878540039 0.73180091381073 0.025912299752235413 -3.3722782899481274e-10 6.844044220244427e-10 6.795827234284957e-10 2.2216696739196777 -0.7334870100021362 -0.2089199721813202 1.5266661632790113e-13 -5.534164706361144e-12 -3.1805545068312735e-13 -67.4219970703125 5.7128705978393555 -36.335994720458984 28.419200897216797 -34.75199890136719 -74.93219757080078 0.4375499188899994 18.469900131225586 -2.690579891204834 -7.782816613399746e-10 1.1006500155730237e-09 1.693956974690991e-09 -1.3257059894300482e-09 1.8986510141871804e-09 2.9374012111560432e-09 -7.782944289047578e-10 1.1006500155730237e-09 1.6939697422557742e-09 -7.7309088706970215 5.474880218505859 -0.41731396317481995 -7.782816613399746e-10 1.1006500155730237e-09 1.6939697422557742e-09 -2.9055399894714355 0.9651829600334167 -0.10290198773145676 -7.782944289047578e-10 1.1006500155730237e-09 1.6939697422557742e-09 -10.27859878540039 0.73180091381073 -0.025912299752235413 -7.782816613399746e-10 1.1006500155730237e-09 1.693956974690991e-09 -2.2216696739196777 -0.7334870100021362 0.2089199721813202 -0.0 0.0 -0.0 -13.766596794128418 -38.81160354614258 -25.645795822143555 -38.77040100097656 88.62242126464844 40.4755973815918 -23.35519790649414 -24.870500564575195 -34.39879608154297 -0.0 0.0 -0.0 82.65519714355469 -42.81840133666992 75.88369750976562 4.319859504699707 77.84719848632812 -4.182389259338379 -0.2047170251607895 1.7628799676895142 -5.026360034942627
-0.5305589195310652 34.86167484452777 -0.17589804533171102 -158.9119873046875 -66.44560241699219 161.16000366210938 1.6952099800109863 11.795499801635742 13.661398887634277 -0.3653069734573364 -14.116199493408203 3.8006691932678223 -0.11825704574584961 13.113398551940918 9.829588890075684 5.233308792114258 -18.648799896240234 19.985599517822266 -0.0 0.0 -0.0 -0.0 0.0 -0.0 -2.162777064645266e-13 -3.409554322902908e-12 -7.124442095302053e-13 47.569297790527344 82.4292984008789 15.79119873046875 -26.520000457763672 -45.19249725341797 93.852294921875 -42.41419982910156 -79.59609985351562 -49.946998596191406 -2.0833776925854863e-09 1.8107787491672411e-09 2.7021800352855507e-09 -3.733894526902759e-09 2.7588256124033705e-09 4.44967840351751e-09 -2.0833650360430056e-09 1.810765981602458e-09 2.7021800352855507e-09 7.7309088706970215 5.474880218505859 0.41731396317481995 -2.0833650360430056e-09 1.810765981602458e-09 2.7021926918280315e-09 2.9055399894714355 0.9651829600334167 0.10290198773145676 -2.0833650360430056e-09 1.8107787491672411e-09 2.7021926918280315e-09 10.27859878540039 0.73180091381073 0.025912299752235413 -2.0833776925854863e-09 1.8107787491672411e-09 2.7021926918280315e-09 2.2216696739196777 -0.7334870100021362 -0.2089199721813202 -2.162777064645266e-13 -3.409554322902908e-12 -7.124442095302053e-13 -67.52230072021484 5.633659839630127 -36.31279373168945 28.418100357055664 -34.732398986816406 -74.90239715576172 0.43841296434402466 18.487300872802734 -2.6933000087738037 -1.410995764672407e-09 1.2298567719781772e-09 2.0121395660765984e-09 -2.410847521616688e-09 2.1218242718390457e-09 3.4949205751644286e-09 -1.410995764672407e-09 1.2298567719781772e-09 2.0121395660765984e-09 -7.7309088706970215 5.474880218505859 -0.41731396317481995 -1.410995764672407e-09 1.2298567719781772e-09 2.0121395660765984e-09 -2.9055399894714355 0.9651829600334167 -0.10290198773145676 -1.410995764672407e-09 1.2298567719781772e-09 2.0121395660765984e-09 -10.27859878540039 0.73180091381073 -0.025912299752235413 -1.4109829971076238e-09 1.2298567719781772e-09 2.0121269095341177e-09 -2.2216696739196777 -0.7334870100021362 0.2089199721813202 -0.0 0.0 -0.0 -13.68690013885498 -38.83399963378906 -25.564298629760742 -38.230796813964844 88.60899353027344 39.935997009277344 -23.355897903442383 -24.80050277709961 -34.446598052978516 -0.0 0.0 -0.0 82.64419555664062 -42.82019805908203 75.83470153808594 4.312580108642578 77.84100341796875 -4.175260066986084 -0.20187599956989288 1.7271798849105835 -4.964160442352295
-0.5290692292805136 34.86029856141001 -0.17188734065867334 -158.864990234375 -66.44339752197266 161.12994384765625 1.668529748916626 11.822399139404297 13.65429973602295 -0.3480587601661682 -14.134500503540039 3.802410125732422 -0.1211201623082161 13.12709903717041 9.820770263671875 5.236259460449219 -18.7356014251709 19.97709846496582 -0.0 0.0 -0.0 -0.0 0.0 -0.0 -2.6716657857382697e-13 -3.829387761750125e-12 -8.460275123696459e-13 47.70469665527344 82.4024887084961 15.66619873046875 -26.521499633789062 -45.18960189819336 93.84529876708984 -42.47439956665039 -79.6052017211914 -50.00819778442383 -1.287920992076863e-09 2.7463451512943493e-09 2.9389022326853365e-09 -2.386764341721914e-09 4.44855263737054e-09 4.895980065811045e-09 -1.287920992076863e-09 2.7463451512943493e-09 2.9388895761428557e-09 7.7309088706970215 5.474880218505859 0.41731396317481995 -1.2879083355343823e-09 2.7463324947518686e-09 2.9389022326853365e-09 2.9055399894714355 0.9651829600334167 0.10290198773145676 -1.2879083355343823e-09 2.7463451512943493e-09 2.9389022326853365e-09 10.27859878540039 0.73180091381073 0.025912299752235413 -1.287920992076863e-09 2.7463451512943493e-09 2.9389022326853365e-09 2.2216696739196777 -0.7334870100021362 -0.2089199721813202 -2.6716657857382697e-13 -3.829387761750125e-12 -8.460275123696459e-13 -67.5458984375 5.605760097503662 -36.32609939575195 28.416397094726562 -34.683998107910156 -74.82349395751953 0.44338107109069824 18.58770179748535 -2.709009885787964 -1.4266441361598936e-09 1.3672185605884124e-09 2.560518019834035e-09 -2.431355783372169e-09 2.357261719154735e-09 4.442458401143767e-09 -1.4266441361598936e-09 1.3672185605884124e-09 2.560518019834035e-09 -7.7309088706970215 5.474880218505859 -0.41731396317481995 -1.4266441361598936e-09 1.3672185605884124e-09 2.560518019834035e-09 -2.9055399894714355 0.9651829600334167 -0.10290198773145676 -1.4266441361598936e-09 1.3672185605884124e-09 2.560511802585097e-09 -10.27859878540039 0.73180091381073 -0.025912299752235413 -1.4266441361598936e-09 1.3672185605884124e-09 2.5604991460426163e-09 -2.2216696739196777 -0.7334870100021362 0.2089199721813202 -0.0 0.0 -0.0 -13.636998176574707 -38.849998474121094 -25.52339744567871 -37.879600524902344 88.60086059570312 39.5839958190918 -23.35749626159668 -24.79789924621582 -34.451698303222656 -0.0 0.0 -0.0 82.63289642333984 -42.84119415283203 75.78579711914062 4.297749996185303 77.82429504394531 -4.160159111022949 -0.20041000843048096 1.7118899822235107 -4.942749977111816
